PathFileType	4	(X/Y/Z)	\\147.46.242.158\로컬 디스크 (e)\MOCAP Data\Iguana Capture\iguana\Project 2\Capture day 6 after broken\Session 2\Take08 good walk.trc
DataRate	CameraRate	NumFrames	NumMarkers	Units	OrigDataRate	OrigDataStartFrame	OrigNumFrames
120.0	120.0	13	23	mm	120.0	309	9299
Frame#	Time	ana:head1			ana:head2			ana:bone1			ana:bone2			ana:bone3			ana:tail1			ana:tail2			ana:tail3			ana:tail4			ana:Rforefoot1			ana:Rforefoot2			ana:Rforefoot3			ana:Lforefoot1			ana:Lforefoot2			ana:Lforefoot3			ana:RhindLeg1			ana:RhindLeg2			ana:RhindLeg3			ana:RhindLeg4			ana:LhindLeg1			ana:LhindLeg2			ana:LhindLeg3			ana:LhindLeg4			
		X1	Y1	Z1	X2	Y2	Z2	X3	Y3	Z3	X4	Y4	Z4	X5	Y5	Z5	X6	Y6	Z6	X7	Y7	Z7	X8	Y8	Z8	X9	Y9	Z9	X10	Y10	Z10	X11	Y11	Z11	X12	Y12	Z12	X13	Y13	Z13	X14	Y14	Z14	X15	Y15	Z15	X16	Y16	Z16	X17	Y17	Z17	X18	Y18	Z18	X19	Y19	Z19	X20	Y20	Z20	X21	Y21	Z21	X22	Y22	Z22	X23	Y23	Z23	

8941	74.500	429.21765	-67.42904	48.21102	421.12534	-60.09156	49.14695	404.78287	-46.76030	43.48755	383.21280	-30.43905	44.49585	352.74124	-8.52300	41.14532	331.21942	16.31628	36.19084	306.53256	39.23829	27.07244	273.78806	67.96297	13.64940	247.75026	87.96872	6.94066	400.05765	-57.89812	26.07539	392.52347	-67.26909	16.91879	404.67352	-70.51100	3.49911	410.77200	-35.26808	26.73072	405.44608	-21.19642	23.11097	395.80106	-16.37767	9.44771	343.37915	-11.63142	34.78393	328.27972	-15.40276	30.94833	308.96973	-7.04064	25.73039	301.05261	-2.82689	13.93793	361.54459	-0.76078	32.84309	375.64893	5.11294	23.27309	367.60117	14.13072	7.28351	375.64230	7.43628	2.97998	
8942	74.508	431.11304	-70.01324	47.42158	423.00687	-62.21271	47.88364	407.22311	-48.87476	42.75891	386.29257	-31.84871	44.28925	355.92136	-10.13702	41.57343	333.50125	14.39419	36.70568	308.98914	37.19030	27.70283	276.37933	66.07917	13.81539	250.18903	85.96384	7.09993	401.22867	-59.75978	26.05827	392.52649	-67.74370	16.81050	404.64319	-70.46461	3.35412	413.10162	-38.47192	25.96625	409.53644	-24.43402	23.74751	400.39645	-19.30875	9.24608	346.49136	-13.26127	35.32099	331.23907	-17.67872	31.87554	311.57346	-10.22775	26.89710	302.74472	-5.58024	16.33320	364.01129	-1.93387	32.59151	377.16058	4.96402	22.93347	368.00830	14.10147	7.38138	375.97321	7.71210	2.59276	
8943	74.517	433.54956	-72.56017	46.56788	425.55008	-64.98655	47.66895	409.82242	-51.10698	42.37745	389.27478	-33.47426	44.04487	359.11707	-12.17700	42.27488	335.70172	12.11181	37.29277	311.04306	34.93134	28.16194	278.96722	64.07606	13.68151	252.83214	83.98335	6.76926	401.28329	-62.99731	27.45140	392.64957	-68.16193	16.97083	404.54846	-70.49614	3.11084	417.45441	-41.28376	27.35801	414.16760	-27.02485	25.34820	409.83246	-19.97236	11.55729	349.67065	-15.23681	35.76322	334.33258	-20.77681	32.36286	314.82617	-13.67182	27.56184	306.24503	-8.98208	16.62640	366.76187	-3.02160	33.35080	378.49503	4.83658	22.60945	367.94455	13.62337	8.04790	375.95599	7.54426	2.46587	
8944	74.525	435.47382	-75.42716	46.42112	427.31400	-67.26411	47.54737	412.79453	-53.83550	42.87940	392.20364	-35.06110	44.22777	361.29987	-13.17041	41.54192	337.58878	9.44890	37.94444	312.96832	32.54607	28.54559	281.26202	62.05251	13.88268	255.49968	82.30132	7.09089	402.22650	-64.76885	27.96604	393.13950	-68.39799	17.07872	404.55847	-70.46274	3.03238	420.48483	-44.26805	27.94618	419.27530	-29.82049	27.99084	417.79889	-22.11135	12.82791	352.62326	-17.41920	36.06921	337.98520	-24.83388	33.93484	319.05563	-16.30395	28.23425	310.42984	-12.77385	17.90204	368.97726	-4.59991	33.61735	379.90283	4.64847	22.49390	368.16678	13.21071	8.43257	376.32578	7.38132	2.65805	
8945	74.533	437.27930	-77.86520	46.69472	429.25049	-70.33009	47.53839	414.37222	-56.15987	42.79799	394.69403	-36.83286	44.14600	364.06931	-15.27501	41.78801	339.14459	6.63289	37.98271	314.86221	29.96220	29.01068	283.67990	60.05396	14.20202	257.95837	80.34225	6.67987	403.13541	-66.78121	28.65466	393.87970	-68.44453	17.25412	404.71298	-70.42703	2.84883	423.50522	-47.33551	28.98192	423.99319	-33.24913	30.11168	426.48471	-25.53839	15.26729	355.71637	-20.26813	36.25220	342.03183	-30.28075	35.20996	325.33041	-19.09400	28.85919	316.03207	-16.88027	18.29125	370.90961	-6.14266	33.35560	381.88208	5.67441	23.26816	368.95334	13.26558	9.98694	376.59109	7.24064	3.01627	
8946	74.542	438.91055	-80.88004	46.74629	430.79431	-73.18576	47.93098	416.08447	-58.51793	43.67165	397.28705	-38.43096	44.37669	366.54492	-17.40469	41.72847	340.90207	3.35363	37.92293	316.43439	26.76374	28.81264	285.93539	57.88238	14.60686	260.16684	78.36509	7.02038	404.25186	-68.36812	29.38687	394.58252	-68.87984	17.80528	404.79016	-70.58900	3.17102	427.08734	-51.65678	30.88675	428.67050	-37.00643	32.51438	434.88776	-30.63217	18.51967	358.82605	-23.32153	35.89395	348.04282	-34.83952	36.20876	332.00693	-22.76261	28.97135	322.99194	-23.78003	18.53102	372.67911	-7.75268	33.38493	382.46509	5.07258	23.19592	368.91983	12.69719	10.46375	376.63229	7.07378	3.14846	
8947	74.550	440.48953	-83.70569	47.47651	431.94803	-76.33517	48.20377	418.16125	-61.66194	44.07442	399.72043	-40.25520	44.83435	368.97211	-19.32439	41.58630	342.19455	0.22401	37.25289	317.49683	23.49114	28.01244	287.96231	55.17825	13.95684	263.03873	76.61423	6.48809	405.59332	-69.84781	30.05009	395.49683	-69.34793	18.47965	404.94482	-70.94199	3.50552	428.15628	-54.27718	31.19004	432.20349	-41.26468	34.23983	441.87973	-37.11062	21.25572	361.80209	-26.38800	35.49637	354.15802	-39.91124	37.03133	339.04239	-27.52772	29.29149	330.98618	-33.21104	19.76513	374.49872	-9.20923	33.40446	383.10046	4.49802	23.68218	369.90488	12.54166	11.81781	376.89041	6.97139	3.55842	
8948	74.558	441.85522	-86.54609	48.33099	433.58670	-79.42059	48.56553	420.13150	-64.68860	45.60322	402.16367	-42.21934	44.98502	371.35651	-20.31486	42.54194	343.76953	-3.36501	36.91372	319.26407	19.24226	27.61452	290.06522	51.97255	12.97199	266.06482	74.09838	6.43077	406.77649	-72.23170	31.22899	396.57901	-70.22530	19.04551	405.02966	-70.82198	3.50862	429.39417	-57.31272	30.77956	435.76465	-45.56610	35.51169	446.20386	-44.23620	22.44525	365.30151	-28.85516	35.95341	360.89883	-44.28856	37.77274	345.53125	-34.04362	28.17927	339.61325	-43.64415	20.78527	376.41904	-10.98347	33.39369	383.48996	2.32258	23.29749	369.11749	10.79064	11.43091	376.96088	6.69257	3.83948	
8949	74.567	442.83023	-89.44825	49.02652	434.90814	-81.76271	50.43507	421.59888	-67.44586	46.33659	404.31927	-44.16618	45.78672	374.11530	-23.77635	41.28930	345.47174	-6.82929	36.50095	320.28732	15.47309	26.32009	292.10837	48.17064	11.94444	268.48706	71.33587	6.08222	411.35733	-71.91327	27.91540	397.87006	-70.80372	19.83255	405.32751	-71.09658	3.83121	433.47714	-61.74557	33.70502	439.17264	-49.83779	35.99819	451.85153	-51.62052	25.14415	368.60834	-32.15445	36.28448	367.47449	-47.65662	37.82953	352.14682	-41.74692	26.99759	349.43756	-53.97964	21.42372	378.82700	-12.91239	33.61674	384.47015	2.19383	23.97503	369.96783	10.13882	12.71026	376.90106	6.49310	4.07030	
8950	74.575	444.40564	-92.53123	49.76424	436.50989	-85.25402	51.37616	422.79672	-69.74884	46.86360	406.60010	-46.60848	46.18906	376.33371	-25.88922	41.12855	347.59268	-10.60005	35.97446	321.88028	11.11752	25.55993	294.17859	44.29989	11.26863	271.24301	67.96719	5.74994	412.36435	-74.89741	28.67523	399.04834	-72.86546	20.86815	405.85443	-71.66015	4.13753	435.41296	-65.20757	34.46135	442.81216	-54.19774	35.78657	455.17282	-58.75153	25.92198	372.21481	-34.88490	36.35405	373.33572	-51.03770	37.81956	357.27753	-50.54955	26.01020	359.76395	-62.97139	21.58178	380.93124	-15.03860	33.75051	385.47751	-0.46106	24.10563	370.31592	8.78321	13.46711	376.97720	6.03501	4.23064	
8951	74.583	446.19373	-95.66336	51.51869	437.91962	-88.42305	52.38696	424.24289	-72.62554	47.96709	408.40909	-49.56855	47.23222	378.79102	-28.64129	41.22989	350.02701	-14.62375	35.80663	323.63016	6.88639	25.39106	296.16452	40.42899	11.01260	273.57153	64.49403	5.59025	413.75711	-77.83448	29.65675	400.88922	-74.43636	21.35943	406.28931	-72.18626	4.47059	436.32593	-68.44322	34.18154	447.16574	-59.33434	36.27368	457.42764	-65.46388	25.99561	375.38147	-37.94841	36.11518	378.65262	-54.24553	37.41865	363.96945	-59.52513	24.75095	370.28473	-70.32703	20.26723	383.13455	-17.67568	34.13637	385.97101	-2.58694	24.78067	371.33551	7.31252	14.62623	377.90991	5.48638	5.04083	
8952	74.592	447.79379	-99.16193	52.52279	439.17722	-91.51910	53.41892	425.95810	-75.57987	48.78599	410.65201	-52.63772	47.85519	382.60565	-33.01411	42.65623	351.85635	-18.20700	35.63921	325.81201	2.74458	25.10765	298.17538	36.23164	11.06909	275.72205	60.63562	5.61801	416.42169	-79.69049	29.49793	403.04810	-76.09810	21.89273	406.84738	-73.07096	4.69290	440.33234	-73.66889	36.68512	450.37363	-64.12984	36.06869	460.45706	-72.30296	26.45924	378.24716	-41.54264	36.44312	382.91492	-57.79221	36.47080	370.97394	-66.64011	22.24811	379.72452	-75.64435	18.07713	384.99951	-20.86666	34.29778	386.85486	-5.18570	25.53620	372.28622	5.32867	15.62154	378.51926	4.69874	5.65378	
8953	74.600	449.69318	-102.35818	53.32718	441.85406	-95.43948	54.66588	426.89758	-78.83605	49.59842	412.82819	-56.01211	48.53843	383.72516	-35.37682	41.94144	354.03113	-22.50999	35.53303	327.91367	-1.44330	25.13987	300.48691	32.25645	11.04252	278.09076	56.49768	5.72941	419.05029	-82.76571	29.11240	405.08536	-79.16296	22.71546	407.73373	-74.00523	4.96000	446.98734	-78.29005	41.19979	454.88037	-70.26496	36.33959	464.39206	-78.79225	27.46144	381.08417	-45.41697	36.26588	386.37408	-61.40439	34.90935	378.05969	-71.67461	18.96794	387.99521	-80.51486	14.35066	387.09930	-24.38165	34.81558	388.02603	-8.30451	26.68655	373.63303	3.24799	16.37212	379.52039	4.40820	6.48877	
